<?xml version="1.0" standalone="no"?>
<!DOCTYPE svg PUBLIC "-//W3C//DTD SVG 20010904//EN"
 "http://www.w3.org/TR/2001/REC-SVG-20010904/DTD/svg10.dtd">
<svg version="1.0" xmlns="http://www.w3.org/2000/svg"
 width="360.000000pt" height="360.000000pt" viewBox="0 0 360.000000 360.000000"
 preserveAspectRatio="xMidYMid meet">
<metadata>
Created by potrace 1.14, written by Peter Selinger 2001-2017
</metadata>
<g transform="translate(0.000000,360.000000) scale(0.100000,-0.100000)"
fill="#000000" stroke="none">
<path d="M1010 3205 c-46 -11 -63 -22 -107 -70 -29 -31 -53 -62 -53 -70 0 -8
-6 -15 -13 -15 -16 0 -146 -67 -169 -88 -56 -48 22 -102 148 -102 63 0 64 0
82 -37 11 -21 27 -62 36 -90 l18 -53 -28 -55 c-26 -54 -26 -60 -22 -183 l5
-127 48 -88 c87 -156 184 -250 350 -337 44 -23 83 -45 88 -49 11 -11 -179
-131 -243 -153 -30 -11 -61 -25 -68 -30 -9 -8 -21 -7 -40 2 -15 7 -52 20 -82
30 -30 10 -80 29 -111 43 -31 14 -72 28 -90 32 -19 4 -59 19 -89 33 -63 29
-220 72 -262 72 -33 0 -46 -23 -28 -45 7 -8 32 -24 56 -35 25 -10 47 -26 50
-34 4 -11 19 -16 46 -16 57 0 100 -25 93 -53 -5 -17 0 -26 18 -36 20 -11 29
-10 55 3 17 9 40 16 50 16 24 0 133 -49 111 -49 -9 -1 -22 -8 -29 -16 -10 -12
-8 -18 11 -35 25 -20 50 -25 63 -13 3 4 22 12 41 19 27 9 37 9 45 -1 6 -7 27
-16 46 -20 35 -6 35 -7 19 -25 -17 -19 -17 -21 6 -40 16 -13 32 -18 49 -15
105 24 104 24 145 3 22 -11 42 -22 44 -24 2 -2 -9 -14 -25 -27 -18 -15 -25
-30 -21 -40 11 -29 51 -30 106 -3 l52 25 65 -36 65 -35 -33 -17 c-43 -21 -48
-48 -12 -61 19 -7 37 -7 59 0 18 6 39 8 49 4 9 -3 23 -1 31 6 12 10 27 5 79
-26 l64 -39 -31 -10 c-38 -13 -57 -39 -39 -57 9 -9 41 -12 105 -11 79 3 95 0
117 -17 39 -31 208 -148 233 -161 41 -22 154 -117 236 -200 66 -66 164 -209
217 -314 77 -154 105 -167 175 -83 56 66 69 92 69 138 0 44 -45 108 -109 155
-22 17 -41 33 -41 36 0 9 -160 143 -188 158 -13 7 -31 19 -40 27 -57 50 -125
100 -179 130 -35 20 -65 39 -68 44 -7 11 -140 100 -149 100 -4 0 -29 17 -56
37 -61 47 -92 67 -202 132 -68 41 -85 55 -81 70 3 12 -3 24 -17 34 l-23 16 22
27 c11 15 21 30 21 35 0 8 97 179 109 192 4 4 40 -4 81 -18 103 -35 219 -36
265 -1 l32 25 57 -47 c124 -100 153 -123 203 -159 29 -21 53 -43 53 -50 0 -18
80 -103 124 -130 21 -14 46 -23 56 -20 11 3 22 -3 28 -17 6 -11 31 -45 57 -73
44 -51 76 -65 90 -42 4 6 21 -6 40 -29 39 -44 93 -68 178 -75 44 -4 59 -2 64
8 2 8 -17 46 -44 86 -67 98 -118 176 -150 229 -33 56 -133 190 -186 250 -22
25 -45 59 -53 75 -7 17 -33 50 -59 75 -26 25 -63 68 -83 95 -20 28 -53 68 -74
89 -21 22 -38 43 -38 46 0 3 -22 23 -49 43 -39 30 -51 46 -60 84 -20 79 -46
125 -118 207 -37 43 -79 93 -93 110 -66 84 -137 160 -174 186 -65 45 -345 214
-412 248 -56 28 -134 99 -134 122 0 6 -9 30 -21 55 -57 122 -256 192 -429 150z
m207 -91 c3 -8 0 -21 -6 -27 -15 -15 -146 -49 -196 -51 -33 -1 -40 2 -40 18 0
13 10 22 30 28 193 54 203 55 212 32z m-63 -126 c8 -14 7 -21 -6 -34 -30 -30
-75 9 -48 42 16 18 39 15 54 -8z m-324 -36 c0 -5 -29 -14 -64 -20 -78 -15 -93
-15 -80 -2 20 20 144 39 144 22z m442 -575 c71 -34 134 -71 166 -100 29 -26
76 -59 104 -73 28 -14 77 -42 107 -62 31 -19 72 -46 91 -58 19 -12 46 -25 60
-29 50 -14 192 -134 318 -268 61 -65 64 -71 47 -83 -36 -26 -124 -17 -238 25
-58 22 -132 42 -164 46 -148 17 -459 157 -592 266 -110 91 -204 248 -187 313
4 15 18 39 31 52 20 20 34 24 84 24 51 0 75 -8 173 -53z m589 -213 c7 -9 40
-37 74 -62 33 -25 89 -69 125 -98 36 -28 90 -69 121 -90 99 -69 149 -108 149
-116 0 -15 -17 -8 -56 22 -21 17 -63 46 -91 65 -29 20 -77 55 -105 78 -29 24
-83 66 -120 93 -76 58 -138 111 -138 119 0 11 28 4 41 -11z m-118 -438 c37 -4
67 -11 67 -14 0 -4 -9 -18 -20 -32 -11 -14 -20 -28 -20 -32 -1 -24 -116 -205
-136 -212 -8 -3 -67 19 -131 49 -64 31 -137 61 -162 67 -69 17 -111 37 -111
52 0 7 -7 19 -15 26 -13 11 -9 17 32 41 26 15 85 52 131 82 l84 55 107 -38
c60 -20 138 -41 174 -44z"/>
<path d="M2883 1754 c-3 -8 3 -25 14 -37 11 -12 38 -49 59 -82 58 -91 94 -135
110 -135 32 0 22 32 -37 121 -92 140 -130 174 -146 133z"/>
<path d="M3073 1734 c-4 -10 9 -30 35 -57 23 -23 57 -75 77 -115 26 -53 40
-72 53 -70 9 2 18 11 20 20 5 26 -56 140 -102 191 -45 48 -72 59 -83 31z"/>
<path d="M2443 1264 c-17 -44 321 -272 389 -262 44 6 27 37 -32 61 -31 13 -76
37 -100 54 -25 16 -60 38 -77 47 -18 9 -56 39 -84 66 -53 51 -85 62 -96 34z"/>
<path d="M2313 1193 c-4 -11 0 -21 12 -27 10 -6 37 -27 60 -47 52 -43 231
-133 252 -125 34 14 5 43 -96 93 -57 29 -121 69 -142 88 -42 38 -76 45 -86 18z"/>
</g>
</svg>
