<?xml version="1.0" standalone="no"?>
<!DOCTYPE svg PUBLIC "-//W3C//DTD SVG 20010904//EN"
 "http://www.w3.org/TR/2001/REC-SVG-20010904/DTD/svg10.dtd">
<svg version="1.0" xmlns="http://www.w3.org/2000/svg"
 width="360.000000pt" height="360.000000pt" viewBox="0 0 360.000000 360.000000"
 preserveAspectRatio="xMidYMid meet">
<metadata>
Created by potrace 1.14, written by Peter Selinger 2001-2017
</metadata>
<g transform="translate(0.000000,360.000000) scale(0.100000,-0.100000)"
fill="#000000" stroke="none">
<path d="M1010 3205 c-46 -11 -63 -22 -107 -70 -29 -31 -53 -62 -53 -70 0 -8
-6 -15 -13 -15 -16 0 -146 -67 -169 -88 -56 -48 22 -102 148 -102 63 0 64 0
82 -37 11 -21 27 -62 36 -90 l18 -53 -28 -55 c-26 -54 -26 -60 -22 -183 l5
-127 48 -88 c87 -156 184 -250 350 -337 44 -23 83 -45 88 -49 11 -11 -179
-131 -243 -153 -30 -11 -61 -25 -68 -30 -9 -8 -21 -7 -40 2 -15 7 -52 20 -82
30 -30 10 -80 29 -111 43 -31 14 -72 28 -90 32 -19 4 -59 19 -89 33 -63 29
-220 72 -262 72 -55 0 -40 -60 19 -75 l25 -6 -36 -44 c-32 -39 -36 -49 -36
-103 0 -42 5 -63 16 -73 26 -22 48 1 54 57 3 27 14 64 25 81 17 28 26 33 58
33 21 0 51 -7 68 -16 36 -18 33 -39 -12 -94 -25 -30 -29 -43 -29 -96 0 -44 5
-65 16 -75 27 -22 49 1 52 56 2 27 10 58 18 69 8 11 14 28 14 36 0 17 59 50
89 50 24 0 131 -49 110 -49 -20 -1 -55 -46 -93 -116 -47 -89 -31 -232 22 -198
12 7 19 30 23 74 3 40 14 77 27 99 12 19 22 43 22 53 0 10 8 17 18 17 10 0 22
3 26 7 17 17 75 30 86 19 6 -6 27 -15 47 -21 l36 -10 -42 -40 c-49 -47 -61
-84 -61 -186 0 -84 15 -113 48 -92 13 8 19 32 23 101 8 99 25 135 69 147 94
23 104 23 145 3 53 -27 52 -25 22 -49 -15 -11 -27 -24 -27 -28 0 -5 -15 -25
-34 -45 -30 -33 -34 -44 -39 -116 -6 -70 -4 -85 16 -122 17 -32 28 -43 46 -43
29 0 47 25 36 51 -16 41 -16 111 2 155 26 64 43 84 91 107 l43 21 66 -36 65
-36 -32 -13 c-17 -8 -34 -23 -37 -33 -3 -11 -11 -22 -19 -25 -8 -3 -26 -29
-39 -58 -20 -42 -25 -69 -25 -133 0 -82 12 -120 42 -139 14 -8 22 -7 35 6 14
15 15 23 5 55 -14 45 1 113 45 204 27 58 52 76 87 63 9 -3 23 -1 31 6 12 10
27 5 79 -26 64 -38 64 -39 36 -46 -15 -5 -55 -38 -90 -75 l-62 -66 4 -109 5
-109 39 -40 c41 -42 69 -47 88 -17 8 13 5 22 -12 41 -12 13 -22 30 -22 38 0 8
-5 20 -11 26 -7 7 -10 38 -7 81 3 53 9 78 28 105 30 45 37 47 125 53 60 5 73
2 95 -15 35 -29 206 -148 233 -162 41 -22 154 -117 236 -200 66 -66 164 -209
217 -314 77 -154 105 -167 175 -83 56 66 69 92 69 138 0 44 -45 108 -109 155
-22 17 -41 33 -41 36 0 9 -160 143 -188 158 -13 7 -31 19 -40 27 -57 50 -125
100 -179 130 -35 20 -65 39 -68 44 -7 11 -140 100 -149 100 -4 0 -29 17 -56
37 -61 47 -92 67 -202 132 -68 41 -85 55 -81 70 3 12 -3 24 -17 34 l-23 16 22
27 c11 15 21 30 21 35 0 8 97 179 109 192 4 4 40 -4 81 -18 103 -35 219 -36
265 -1 l32 25 57 -47 c124 -100 153 -123 203 -159 29 -21 53 -43 53 -50 0 -18
80 -103 124 -130 21 -14 46 -23 56 -20 11 3 22 -3 28 -17 6 -11 31 -45 57 -73
44 -51 76 -65 90 -42 4 6 21 -6 40 -29 39 -44 93 -68 178 -75 44 -4 59 -2 64
8 2 8 -17 46 -44 86 -67 98 -118 176 -150 229 -33 56 -133 190 -186 250 -22
25 -45 59 -53 75 -7 17 -33 50 -59 75 -26 25 -63 68 -83 95 -20 28 -52 68 -71
89 -38 41 -51 53 -192 178 -48 42 -140 130 -206 195 -127 125 -192 181 -260
225 -23 15 -50 35 -61 45 -60 57 -212 179 -285 230 -35 24 -47 39 -47 58 0 14
-28 77 -61 141 -71 133 -94 153 -206 178 -85 19 -138 19 -213 1z m207 -91 c3
-8 0 -21 -6 -27 -15 -15 -146 -49 -196 -51 -33 -1 -40 2 -40 18 0 13 10 22 30
28 193 54 203 55 212 32z m-63 -126 c8 -14 7 -21 -6 -34 -30 -30 -75 9 -48 42
16 18 39 15 54 -8z m-324 -36 c0 -5 -29 -14 -64 -20 -78 -15 -93 -15 -80 -2
20 20 144 39 144 22z m442 -575 c71 -34 134 -71 166 -100 29 -26 76 -59 104
-73 28 -14 77 -42 107 -62 31 -19 72 -46 91 -58 19 -12 46 -25 60 -29 50 -14
192 -134 318 -268 61 -65 64 -71 47 -83 -36 -26 -124 -17 -238 25 -58 22 -132
42 -164 46 -148 17 -459 157 -592 266 -110 91 -204 248 -187 313 4 15 18 39
31 52 20 20 34 24 84 24 51 0 75 -8 173 -53z m589 -213 c7 -9 40 -37 74 -62
33 -25 89 -69 125 -98 36 -28 90 -69 121 -90 99 -69 149 -108 149 -116 0 -15
-17 -8 -56 22 -21 17 -63 46 -91 65 -29 20 -77 55 -105 78 -29 24 -83 66 -120
93 -76 58 -138 111 -138 119 0 11 28 4 41 -11z m-118 -438 c37 -4 67 -11 67
-14 0 -4 -9 -18 -20 -32 -11 -14 -20 -28 -20 -32 -1 -24 -116 -205 -136 -212
-8 -3 -67 19 -131 49 -64 31 -137 61 -162 67 -69 17 -111 37 -111 52 0 7 -7
19 -15 26 -13 11 -9 17 32 41 26 15 85 52 131 82 l84 55 107 -38 c60 -20 138
-41 174 -44z"/>
<path d="M2883 1754 c-3 -8 3 -25 14 -37 11 -12 38 -49 59 -82 58 -91 94 -135
110 -135 32 0 22 32 -37 121 -92 140 -130 174 -146 133z"/>
<path d="M3073 1734 c-4 -10 9 -30 35 -57 23 -23 57 -75 77 -115 26 -53 40
-72 53 -70 9 2 18 11 20 20 5 26 -56 140 -102 191 -45 48 -72 59 -83 31z"/>
<path d="M2443 1264 c-17 -44 321 -272 389 -262 44 6 27 37 -32 61 -31 13 -76
37 -100 54 -25 16 -60 38 -77 47 -18 9 -56 39 -84 66 -53 51 -85 62 -96 34z"/>
<path d="M2313 1193 c-4 -11 0 -21 12 -27 10 -6 37 -27 60 -47 52 -43 231
-133 252 -125 34 14 5 43 -96 93 -57 29 -121 69 -142 88 -42 38 -76 45 -86 18z"/>
</g>
</svg>
